HIERARCHY
ROOT base
{
	OFFSET 0.0 0.0 0.0
	CHANNELS 6 Xposition Yposition Zposition Zrotation Yrotation Xrotation
	JOINT root
	{
		OFFSET 0 0 0
		CHANNELS 6 Xposition Yposition Zposition Zrotation Yrotation Xrotation
		JOINT chest
		{
			OFFSET 0 4.72302 0
			CHANNELS 3 Zrotation Yrotation Xrotation
			JOINT neck
			{
				OFFSET 0 4.47788 0
				CHANNELS 3 Zrotation Yrotation Xrotation
				End Site
				{
					OFFSET 0.0 0.0 0.0
				}
			}
			JOINT right_shoulder
			{
				OFFSET -0.481 4.87 3.6622
				CHANNELS 3 Zrotation Yrotation Xrotation
				JOINT right_elbow
				{
					OFFSET 0 -5.49576 0
					CHANNELS 3 Zrotation Yrotation Xrotation
					JOINT right_wrist
					{
						OFFSET 0 -5.17894 0
						CHANNELS 3 Zrotation Yrotation Xrotation
						End Site
						{
							OFFSET 0.0 0.0 0.0
						}
					}
				}
			}
			JOINT left_shoulder
			{
				OFFSET -0.481 4.87 -3.6622
				CHANNELS 3 Zrotation Yrotation Xrotation
				JOINT left_elbow
				{
					OFFSET 0 -5.49576 0
					CHANNELS 3 Zrotation Yrotation Xrotation
					JOINT left_wrist
					{
						OFFSET 0 -5.17894 0
						CHANNELS 3 Zrotation Yrotation Xrotation
						End Site
						{
							OFFSET 0.0 0.0 0.0
						}
					}
				}
			}
		}
		JOINT right_hip
		{
			OFFSET 0 0 1.69774
			CHANNELS 3 Zrotation Yrotation Xrotation
			JOINT right_knee
			{
				OFFSET 0 -8.43092 0
				CHANNELS 3 Zrotation Yrotation Xrotation
				JOINT right_ankle
				{
					OFFSET 0 -8.1974 0
					CHANNELS 3 Zrotation Yrotation Xrotation
					End Site
					{
						OFFSET 0.0 0.0 0.0
					}
				}
			}
		}
		JOINT left_hip
		{
			OFFSET 0 0 -1.69774
			CHANNELS 3 Zrotation Yrotation Xrotation
			JOINT left_knee
			{
				OFFSET 0 -8.43092 0
				CHANNELS 3 Zrotation Yrotation Xrotation
				JOINT left_ankle
				{
					OFFSET 0 -8.1974 0
					CHANNELS 3 Zrotation Yrotation Xrotation
					End Site
					{
						OFFSET 0.0 0.0 0.0
					}
				}
			}
		}
	}
	JOINT red_arrow
	{
		OFFSET 0 0 0
		CHANNELS 3 Zrotation Yrotation Xrotation
		End Site
		{
			OFFSET 0.0 0.0 0.0
		}
	}
	JOINT blue_arrow
	{
		OFFSET 0 0 0
		CHANNELS 3 Zrotation Yrotation Xrotation
		End Site
		{
			OFFSET 0.0 0.0 0.0
		}
	}
}
MOTION
Frames: 7
Frame Time: 0.0333333333333333
-59.3597158133984 0 18.4531711339951 0 -16.9913689669534 0 0 17.6367123007774 0 -24.6195982409351 13.3631090739169 -0.0606715357160827 -32.8196381144238 -3.56690871489253 8.96143217357768 -9.4699503691808 -6.95510872214716 10.1733210778678 4.11027112623958 -45.286705666364 -61.6204316255238 -1.75781776579878E-06 0 0 0 0 0 -28.1942878267535 29.8468312952987 36.0389289849643 -3.69305369083883E-05 0 0 0 0 0 34.8561582888035 -8.47926966480225 -1.66721731748823 -22.2736976758968 0 0 6.72142716636269 5.41919630821821 -5.89013901269685 42.3580696037199 6.52756957272002 -0.11260516329838 -7.89516592577948 0 0 -26.4212833874686 6.82120020277207 4.99906713396793 0 0 0 0 0 0
-59.7239620625973 0 18.6648034602404 0 -16.2172406592422 0 0 17.4372901439667 0 -27.2597406196133 13.1348618696625 -0.669469619289619 -35.0857504664 -3.20144387851221 8.41581301957519 -6.28694183687225 -5.51138472188795 8.3976371473007 -3.82177414848963 -48.5420364682951 -49.3995169402104 -6.19744097057367E-06 0 0 0 0 0 -30.8655096009553 39.2892085245004 31.5336944908274 -0.00090359434005835 0 0 0 0 0 44.0856950937292 -7.0724885224546 -1.11104250518891 -32.8426094541695 0 0 6.16391043536195 3.59816488358201 -7.09753293723549 49.6890399794932 6.7067699765918 0.903426548168545 -16.0939286375241 0 0 -23.2556326010852 8.52108584615837 1.73899171744906 0 0 0 0 0 0
-59.9575416326523 0 18.8700169086456 0 -15.4590541771042 0 0 17.1038998603821 0 -28.716948958991 12.6949334125287 -0.799894494693359 -36.4835168116071 -2.69346679105884 8.14718246333045 -3.4504095332376 -4.43269951255971 5.94708399582988 -11.351661435952 -48.0684813665152 -36.615750068144 -0.000239960472506491 0 0 0 0 0 -31.5171644594126 46.4672912678294 26.7593994889079 -0.0203632902032073 0 0 0 0 0 52.3808733883832 -5.12894306071432 -0.15899801290427 -44.1185550945652 0 0 4.75999558041016 1.33725274365044 -7.93865574957666 55.6738410311941 6.52213485537091 2.08608383969208 -25.5519442982401 0 0 -17.810906143677 10.1896949034191 -4.02403484616394 0 0 0 0 0 0
-60.0583603382111 0 19.0568798273802 0 -14.7495389143237 0 0 16.6346326828003 0 -29.1882396955445 11.8205117497141 -0.187783819446056 -36.4699472212023 -2.05691889364991 7.45507489191663 -0.9852312614037 -3.56866972527828 3.48129377815235 -15.2151436955587 -44.1707601005921 -26.2374847065885 -0.115870504050843 0 0 0 0 0 -28.5809853087156 51.6930083322464 22.9881580746149 -3.38496898173005E-06 0 0 0 0 0 59.2356379844497 -3.24514530026879 1.16388965949314 -54.7785986718388 0 0 3.59717220131426 -1.06135409658586 -8.38333898176317 60.737662503674 6.12098569647087 3.22108035048862 -35.3666204845831 0 0 -11.2705112887381 11.3964225329926 -7.83684674481063 0 0 0 0 0 0
-60.0313038349152 0 19.23839828372 0 -14.0853656671644 0 0 16.0459935665131 0 -28.5880602068213 11.121680432419 1.24375605307112 -34.8969493722811 -1.4833426377716 6.36479198877496 1.11104674363415 -2.72440603060704 1.39853222691904 -15.8026641374723 -36.8329077049326 -17.8786574891678 -1.57487356327619E-05 0 0 0 0 0 -20.7278518107767 54.6235204905985 21.7315353784694 -0.0046826457936025 0 0 0 0 0 63.9078132133839 -1.91748321439925 2.16443605965231 -64.3041341675949 0 0 4.85816784019314 -3.17315815443623 -8.7364331283312 64.9615352115129 5.42268722437319 3.82895192598992 -45.4568384548754 0 0 -4.73003294659915 11.7264051316723 -8.82182911328699 0 0 0 0 0 0
-59.9140571296215 0 19.4631946057081 0 -13.4370309215823 0 0 15.3814738512039 0 -27.0372615779846 11.0069081849838 2.99346077506584 -31.6078541001393 -0.875424563000165 5.1824467799031 3.0140737580842 -1.71628860974132 -0.0605274577888654 -13.4681892488096 -28.3406886470257 -11.85233003093 -6.20672205813411E-08 0 0 0 0 0 -8.56268970543944 54.0228879979968 23.1479174608297 -1.3009025880366E-07 0 0 0 0 0 65.7090298981001 -0.84554335318792 2.98542058360409 -71.9718547940129 0 0 10.550372868917 -4.79617337137703 -9.39302868624356 68.1379003092084 5.00001894223891 4.15192893608154 -55.2911224067782 0 0 0.398502064201943 11.7286139921965 -10.0444574907909 0 0 0 0 0 0
-59.7570946514606 0 19.7736593574285 0 -12.7306310017549 0 0 14.7037295818329 0 -24.7212809743849 12.2303437196277 4.6018684305228 -26.6078954183073 -0.3805100628074 4.04608534402043 4.63939048365611 -0.462234915817189 -0.614551645229119 -9.17925997010678 -20.4549161134324 -7.77778828838794 -0.00498897585918994 0 0 0 0 0 6.26989659612422 48.748144571393 25.6642106358725 -2.98161386644829E-05 0 0 0 0 0 64.2134349136871 -0.217534570492445 3.45097333533956 -76.6973143410971 0 0 21.7076644994582 -6.20844845845268 -10.8126663365235 70.1881819752278 5.0049647361008 4.10205881299774 -63.6194691750036 0 0 3.94919609120385 11.1663604488607 -11.0805250654265 0 0 0 0 0 0
